<?xml version="1.0" encoding="utf-8"?>
<!-- Generator: Adobe Illustrator 23.0.1, SVG Export Plug-In . SVG Version: 6.00 Build 0)  -->
<svg version="1.1" id="Capa_1" xmlns="http://www.w3.org/2000/svg" xmlns:xlink="http://www.w3.org/1999/xlink" x="0px" y="0px"
	 viewBox="0 0 512 512" style="enable-background:new 0 0 512 512;" xml:space="preserve">
<style type="text/css">
	.st0{fill:#6713C9;}
	.st1{fill:#8542D4;}
	.st2{fill:#F52C2C;}
	.st3{fill:#81BDFD;}
	.st4{fill:#ACD1FD;}
	.st5{fill:#C92C2C;}
	.st6{fill:#AF1639;}
	.st7{fill:#FC3965;}
	.st8{fill:#FD88A3;}
	.st9{fill:#F19B0B;}
	.st10{fill:#F5C02C;}
	.st11{fill:#FDF061;}
	.st12{fill:#FFF5F5;}
	.st13{fill:#F6D60F;}
</style>
<g>
	<path class="st0" d="M506.4,261.6c0,131.4-101.2,239.2-229.9,249.6c-6.7,0.5-13.6-9.7-20.4-9.7s-13.7,10.3-20.4,9.7
		C106.8,500.8,5.6,393,5.6,261.6C5.6,123.3,117.7,11.2,256,11.2S506.4,123.3,506.4,261.6z"/>
	<path class="st1" d="M506.4,261.6c0,8.6-0.4,17-1.3,25.4c-29.7,82.9-109,142.2-202.1,142.2c-118.5,0-214.6-96.1-214.6-214.6
		c0-93.1,59.3-172.4,142.2-202.1c8.3-0.8,16.8-1.3,25.4-1.3C394.3,11.2,506.4,123.3,506.4,261.6z"/>
	<path class="st2" d="M294.5,182.1l-0.3-0.3c-1.9-1.9-2-5.1-0.1-7.1L453.3,1.7c2-2.1,5.3-2.2,7.4-0.2l14.1,14.1
		c2.1,2.1,2,5.4-0.2,7.4L301.6,182.3C299.6,184.2,296.4,184.1,294.5,182.1L294.5,182.1z"/>
	<path class="st3" d="M490,130L295.6,324.3c7.2,3.5,11.5,8,11.5,12.9c0,8.4-12.6,15.6-30.7,18.7v155.2c-6.7,0.5-13.6,0.8-20.4,0.8
		s-13.7-0.3-20.4-0.8V356c-18-3.2-30.7-10.4-30.7-18.7c0-4.9,4.3-9.4,11.5-12.9L22,130c-6.4-6.4-1.9-17.4,7.2-17.4h453.5
		C491.8,112.6,496.4,123.6,490,130L490,130z"/>
	<path class="st4" d="M276.4,388.3v122.8c-6.7,0.5-13.6,0.8-20.4,0.8V388.3c0-5.6,4.6-10.2,10.2-10.2
		C271.9,378.1,276.4,382.7,276.4,388.3z M293.5,323.4c-13.6-5.9-29.1-5.9-42.6,0c-8.4,3.6-13.6,8.5-13.6,13.9
		c0,8.5,12.9,15.7,31.3,18.8c2.4,0.4,4.9,0.4,7.3,0c18.4-3.1,31.3-10.4,31.3-18.8C307.1,331.9,301.9,327,293.5,323.4z M482.7,112.6
		H89.9L224.4,247c41,41,107.6,41,148.6,0l117-117C496.4,123.6,491.8,112.6,482.7,112.6z"/>
	<path class="st5" d="M294.2,181.9c-1.9-1.9-2-5.1-0.1-7.1l57.2-62.2h26.1l-75.8,69.7c-2,1.9-5.1,1.8-7.1-0.1L294.2,181.9z"/>
	<path class="st6" d="M374.7,191.4c5.2-2.2,9.6,4.3,5.6,8.3L270.5,309.5c-8,8-20.9,8-28.9,0L115.3,183.3c-2.4-2.4-1.8-6.4,1.1-8.1
		l5-2.8c22-12.2,47.9-15.4,72.3-8.8l118,32C332.6,201.3,354.7,199.8,374.7,191.4L374.7,191.4z"/>
	<path class="st7" d="M200.4,195.6l118-32c24.3-6.6,50.2-3.4,72.3,8.8l5,2.8c3,1.6,3.5,5.7,1.1,8.1L270.5,309.5c-8,8-20.9,8-28.9,0
		L115.3,183.3c-4-4,0.4-10.5,5.6-8.3C140.9,183.4,179.5,201.3,200.4,195.6z"/>
	<path class="st8" d="M352.6,187.5c6.8,9.2-32.9,48.4-52.6,65.7c-15.6,13.7-32.2,28.2-37.7,24.2c-7-5.1,3.8-40.4,27.7-63.8
		C312.8,191.2,347.3,180.2,352.6,187.5L352.6,187.5z"/>
	<path class="st9" d="M396.3,78.4c12,12,8.7,34.6-7.2,50.6c-16,16-38.6,19.2-50.6,7.2c-12-12-8.7-34.6,7.2-50.6
		S384.3,66.4,396.3,78.4z"/>
	<path class="st10" d="M396.3,78.4c12,12,8.7,34.6-7.2,50.6c-6.1,6.1-13.3,10.4-20.4,12.6c-3.5-1.2-6.7-3.1-9.4-5.8
		c-12-12-8.7-34.6,7.2-50.6c6.1-6.1,13.3-10.4,20.4-12.6C390.4,73.8,393.6,75.7,396.3,78.4z"/>
	<path class="st11" d="M392.9,97.1c0,8.5-4.6,15.3-10.2,15.3c-5.6,0-10.2-6.9-10.2-15.3s4.6-15.3,10.2-15.3
		C388.4,81.8,392.9,88.6,392.9,97.1z"/>
	<path class="st12" d="M340,371.9l10.8,19.8c0.2,0.3,0.5,0.6,0.8,0.8l19.8,10.8c1.4,0.8,1.4,2.8,0,3.6l-19.8,10.8
		c-0.3,0.2-0.6,0.5-0.8,0.8L340,438.4c-0.8,1.4-2.8,1.4-3.6,0l-10.8-19.8c-0.2-0.3-0.5-0.6-0.8-0.8L305,407c-1.4-0.8-1.4-2.8,0-3.6
		l19.8-10.8c0.3-0.2,0.6-0.5,0.8-0.8l10.8-19.8C337.2,370.5,339.2,370.5,340,371.9z"/>
	<path class="st13" d="M121.9,307.3l7.6,13.9c0.1,0.2,0.3,0.4,0.6,0.6l13.9,7.6c1,0.5,1,2,0,2.5l-13.9,7.6c-0.2,0.1-0.4,0.3-0.6,0.6
		l-7.6,13.9c-0.5,1-2,1-2.5,0l-7.6-13.9c-0.1-0.2-0.3-0.4-0.6-0.6l-13.9-7.6c-1-0.5-1-2,0-2.5l13.9-7.6c0.2-0.1,0.4-0.3,0.6-0.6
		l7.6-13.9C119.9,306.3,121.3,306.3,121.9,307.3z"/>
	<path class="st8" d="M387.6,327.8l7.6,13.9c0.1,0.2,0.3,0.4,0.6,0.6l13.9,7.6c1,0.5,1,2,0,2.5l-13.9,7.6c-0.2,0.1-0.4,0.3-0.6,0.6
		l-7.6,13.9c-0.5,1-2,1-2.5,0l-7.6-13.9c-0.1-0.2-0.3-0.4-0.6-0.6l-13.9-7.6c-1-0.5-1-2,0-2.5l13.9-7.6c0.2-0.1,0.4-0.3,0.6-0.6
		l7.6-13.9C385.6,326.8,387.1,326.8,387.6,327.8z"/>
</g>
</svg>
