<?xml version="1.0" encoding="utf-8"?>
<!-- Generator: Adobe Illustrator 23.0.1, SVG Export Plug-In . SVG Version: 6.00 Build 0)  -->
<svg version="1.1" id="Capa_1" xmlns="http://www.w3.org/2000/svg" xmlns:xlink="http://www.w3.org/1999/xlink" x="0px" y="0px"
	 viewBox="0 0 512 512" style="enable-background:new 0 0 512 512;" xml:space="preserve">
<style type="text/css">
	.st0{fill:#FC3965;}
	.st1{fill:#FD88A3;}
	.st2{fill:#FC9302;}
	.st3{fill:#F6D60F;}
	.st4{fill:#FDF385;}
	.st5{fill:#08A8F0;}
	.st6{fill:#63BCFA;}
	.st7{fill:#6713C9;}
	.st8{fill:#8542D4;}
	.st9{fill:#F5C02C;}
	.st10{fill:#D98800;}
	.st11{fill:#FFF5F5;}
	.st12{fill:#17E4B9;}
</style>
<g>
	<path class="st0" d="M500.8,261.6c0,138.3-112.1,250.4-250.4,250.4S0,399.9,0,261.6S112.1,11.2,250.4,11.2S500.8,123.3,500.8,261.6
		z"/>
	<path class="st1" d="M254.5,118c0-8.2,6.6-14.8,14.8-14.8h103.2c8.2,0,14.8,6.6,14.8,14.8s-6.6,14.8-14.8,14.8H269.3
		C261.1,132.9,254.5,126.2,254.5,118z M340.8,80.7h82.7c-11.5-11-24.1-21-37.5-29.6h-45.1c-8.2,0-14.8,6.6-14.8,14.8
		S332.6,80.7,340.8,80.7L340.8,80.7z M500.5,249.3c-32.7-15.7-69.3-24.4-108-24.4c-87.3,0-164.2,44.7-209,112.4H11.6
		c7.1,22.3,17.1,43.2,29.8,62.3c5,7.6,13.6,12.2,22.7,12.2h308.7c59.4,0,111-41.6,122.9-99.9c3.3-16.2,5-33,5-50.3
		C500.8,257.5,500.7,253.4,500.5,249.3L500.5,249.3z M111.4,281.5c0-8.2-6.6-14.8-14.8-14.8H0.1c0.2,10,1,19.9,2.3,29.6h94.2
		C104.8,296.4,111.4,289.7,111.4,281.5z"/>
	<path class="st2" d="M391.6,411.8H280.7c-3.8-9-5.8-18.6-5.8-28.5c0-53.6,59.5-97.1,132.9-97.1c33.9,0,64.7,9.3,88.2,24.5
		c-2.3,11.4-5.3,22.6-9.1,33.4C472.8,384.6,434.6,411.8,391.6,411.8L391.6,411.8z"/>
	<path class="st3" d="M487.6,342.1c-12.6,37-33.6,70.2-60.7,97.2c-2.9,0.1-5.9,0.2-8.9,0.2c-56.4,0-102.2-25.2-102.2-56.2
		S361.5,327,418,327C444.9,327,469.3,332.7,487.6,342.1L487.6,342.1z"/>
	<path class="st4" d="M431.4,434.6c-35.8-8.7-60.8-28.5-60.8-51.4c0-25.8,31.7-47.6,74.8-54.2c16,2.4,30.4,7,42.2,13
		C475.7,377,456.3,408.5,431.4,434.6z"/>
	<path class="st5" d="M460,398.6C415.3,466.9,338.1,512,250.4,512S85.4,466.9,40.7,398.6H460z"/>
	<path class="st6" d="M407.8,419H244.2c-5.6,0-10.2-4.6-10.2-10.2c0-5.6,4.6-10.2,10.2-10.2h163.5c5.6,0,10.2,4.6,10.2,10.2
		C418,414.4,413.4,419,407.8,419z M367.4,440.3c-5.6,0-10.2,4.6-10.2,10.2c0,5.6,4.6,10.2,10.2,10.2h34.8
		c8.3-6.3,16.2-13.2,23.6-20.4H367.4z"/>
	<path class="st7" d="M328,112.4v387.3c-24.5,8-185.2-6-226.9-37c-10.9-8.1-21.2-17.1-30.7-26.9V112.4c0-5.6,4.6-10.2,10.2-10.2
		h40.9V81.8c0-5.6,4.6-10.2,10.2-10.2h1V40.9h12.3v30.7h108.3V40.9h12.3v30.7h1c5.6,0,10.2,4.6,10.2,10.2v20.4h40.9
		C323.5,102.2,328,106.8,328,112.4z"/>
	<path class="st7" d="M425.5,248.6L402,229.1v231.8c-6.6,5-13.4,9.7-20.4,14v-250l-17.3,27.5c-8.4-8.6-9.2-23.8-1.3-36.3
		c0.3-0.5,0.6-1,1-1.5h-27.8c2.7-11,13.9-19.5,27.7-20.4L342,180.5c8.6-8.4,23.8-9.2,36.3-1.3c6.4,4,11,9.6,13.5,15.6
		c0.6-8.1,5-16.5,12.5-22.6c11.5-9.4,26.6-10.4,36.2-3.2l-32.1,26.2c2.8-0.7,5.8-1.1,8.9-1.1c14.8,0,27.2,8.8,30,20.4h-30.8
		C427.1,224.1,430.6,238.2,425.5,248.6L425.5,248.6z"/>
	<path class="st8" d="M490.1,345.9l-23.5-19.5v61.5c-6.1,10.4-12.9,20.4-20.4,29.8v-95.4l-17.3,27.5c-8.4-8.6-9.2-23.8-1.3-36.3
		c0.3-0.5,0.6-1,1-1.5h-27.8c2.7-11,13.9-19.5,27.7-20.4l-21.9-13.7c8.6-8.4,23.8-9.2,36.3-1.3c6.4,4,11,9.6,13.5,15.6
		c0.6-8.1,5-16.5,12.5-22.6c11.5-9.4,26.6-10.4,36.2-3.2L473,292.6c2.8-0.7,5.8-1.1,8.9-1.1c14.8,0,27.2,8.8,30,20.4h-30.8
		C491.7,321.4,495.2,335.5,490.1,345.9L490.1,345.9z"/>
	<path class="st8" d="M328,112.4v387.3c-24.5,8-50.6,12.3-77.7,12.3c-55.9,0-107.5-18.3-149.2-49.3v-335c0-5.6,4.6-10.2,10.2-10.2
		h135.1c4.2,0,7.9-3.2,8-7.4c0.1-4.3-3.3-7.9-7.7-7.9h-84.3c-5.6,0-10.2-4.6-10.2-10.2V81.8c0-5.6,4.6-10.2,10.2-10.2h104.2
		c5.6,0,10.2,4.6,10.2,10.2v20.4h40.9C323.5,102.2,328,106.8,328,112.4z"/>
	<path class="st7" d="M295.3,153.3V508c-6.7,1.2-13.5,2.2-20.4,2.8V153.3c0-5.6,4.6-10.2,10.2-10.2
		C290.8,143.1,295.3,147.6,295.3,153.3z M234,143.1c-5.6,0-10.2,4.6-10.2,10.2v357.3c6.7,0.7,13.6,1.2,20.4,1.3V153.3
		C244.2,147.6,239.7,143.1,234,143.1L234,143.1z M182.9,143.1c-5.6,0-10.2,4.6-10.2,10.2v346.4c6.7,2.2,13.5,4.1,20.4,5.7V153.3
		C193.1,147.6,188.6,143.1,182.9,143.1z M131.8,143.1c-5.6,0-10.2,4.6-10.2,10.2v323.1c6.6,4,13.4,7.7,20.4,11V153.3
		C142.1,147.6,137.5,143.1,131.8,143.1z"/>
	<path class="st9" d="M141.5,51.1h-25c-2.8,0-5.1-2.3-5.1-5.1V5.1c0-2.8,2.3-5.1,5.1-5.1h25c2.8,0,5.1,2.3,5.1,5.1V46
		C146.7,48.8,144.4,51.1,141.5,51.1z"/>
	<path class="st3" d="M330.9,123.4l7.6,13.9c0.1,0.2,0.3,0.4,0.6,0.6l13.9,7.6c1,0.5,1,2,0,2.5l-13.9,7.6c-0.2,0.1-0.4,0.3-0.6,0.6
		l-7.6,13.9c-0.5,1-2,1-2.5,0l-7.6-13.9c-0.1-0.2-0.3-0.4-0.6-0.6l-13.9-7.6c-1-0.5-1-2,0-2.5l13.9-7.6c0.2-0.1,0.4-0.3,0.6-0.6
		l7.6-13.9C328.9,122.4,330.3,122.4,330.9,123.4z M282.1,51.1H136.9c-2.8,0-5.1-2.3-5.1-5.1V5.1c0-2.8,2.3-5.1,5.1-5.1h145.1
		c2.8,0,5.1,2.3,5.1,5.1v15.5c-2.6,2.8-2.6,7.2,0,10V46C287.2,48.8,284.9,51.1,282.1,51.1z"/>
	<path class="st10" d="M218.2,26.3l-8.4,4.6c-0.1,0.1-0.3,0.2-0.3,0.3l-4.6,8.4c-0.3,0.6-1.2,0.6-1.5,0l-4.6-8.4
		c-0.1-0.1-0.2-0.3-0.3-0.3l-8.4-4.6c-0.6-0.3-0.6-1.2,0-1.5l8.4-4.6c0.1-0.1,0.3-0.2,0.3-0.3l4.6-8.4c0.3-0.6,1.2-0.6,1.5,0
		l4.6,8.4c0.1,0.1,0.2,0.3,0.3,0.3l8.4,4.6C218.8,25.1,218.8,26,218.2,26.3z M286.5,20.2c-0.1-0.1-0.3-0.2-0.3-0.3l-4.6-8.4
		c-0.3-0.6-1.2-0.6-1.5,0l-4.6,8.4c-0.1,0.1-0.2,0.3-0.3,0.3l-8.4,4.6c-0.6,0.3-0.6,1.2,0,1.5l8.4,4.6c0.1,0.1,0.3,0.2,0.3,0.3
		l4.6,8.4c0.3,0.6,1.2,0.6,1.5,0l4.6-8.4c0.1-0.1,0.2-0.3,0.3-0.3l0.6-0.3v-10L286.5,20.2z M141.6,24.8l-8.4-4.6
		c-0.1-0.1-0.3-0.2-0.3-0.3l-4.6-8.4c-0.3-0.6-1.2-0.6-1.5,0l-4.6,8.4c-0.1,0.1-0.2,0.3-0.3,0.3l-8.4,4.6c-0.6,0.3-0.6,1.2,0,1.5
		l8.4,4.6c0.1,0.1,0.3,0.2,0.3,0.3l4.6,8.4c0.3,0.6,1.2,0.6,1.5,0l4.6-8.4c0.1-0.1,0.2-0.3,0.3-0.3l8.4-4.6
		C142.2,26,142.2,25.1,141.6,24.8z M179.9,24.8l-8.4-4.6c-0.1-0.1-0.3-0.2-0.3-0.3l-4.6-8.4c-0.3-0.6-1.2-0.6-1.5,0l-4.6,8.4
		c-0.1,0.1-0.2,0.3-0.3,0.3l-8.4,4.6c-0.6,0.3-0.6,1.2,0,1.5l8.4,4.6c0.1,0.1,0.3,0.2,0.3,0.3l4.6,8.4c0.3,0.6,1.2,0.6,1.5,0
		l4.6-8.4c0.1-0.1,0.2-0.3,0.3-0.3l8.4-4.6C180.5,26,180.5,25.1,179.9,24.8z"/>
	<path class="st11" d="M246.7,248.8l6,10.9c0.1,0.2,0.3,0.3,0.4,0.4l10.9,6c0.8,0.4,0.8,1.6,0,2l-10.9,6c-0.2,0.1-0.3,0.3-0.4,0.4
		l-6,10.9c-0.4,0.8-1.6,0.8-2,0l-6-10.9c-0.1-0.2-0.3-0.3-0.4-0.4l-10.9-6c-0.8-0.4-0.8-1.6,0-2l10.9-6c0.2-0.1,0.3-0.3,0.4-0.4
		l6-10.9C245.2,248.1,246.3,248.1,246.7,248.8L246.7,248.8z M241.8,11.5l-4.6,8.4c-0.1,0.1-0.2,0.3-0.3,0.3l-8.4,4.6
		c-0.6,0.3-0.6,1.2,0,1.5l8.4,4.6c0.1,0.1,0.3,0.2,0.3,0.3l4.6,8.4c0.3,0.6,1.2,0.6,1.5,0l4.6-8.4c0.1-0.1,0.2-0.3,0.3-0.3l8.4-4.6
		c0.6-0.3,0.6-1.2,0-1.5l-8.4-4.6c-0.1-0.1-0.3-0.2-0.3-0.3l-4.6-8.4C243,10.9,242.1,10.9,241.8,11.5z"/>
	<path class="st1" d="M75.4,167.2l7.6,13.9c0.1,0.2,0.3,0.4,0.6,0.6l13.9,7.6c1,0.5,1,2,0,2.5l-13.9,7.6c-0.2,0.1-0.4,0.3-0.6,0.6
		l-7.6,13.9c-0.5,1-2,1-2.5,0L65.3,200c-0.1-0.2-0.3-0.4-0.6-0.6l-13.9-7.6c-1-0.5-1-2,0-2.5l13.9-7.6c0.2-0.1,0.4-0.3,0.6-0.6
		l7.6-13.9C73.4,166.2,74.9,166.2,75.4,167.2z"/>
	<path class="st12" d="M328.5,432.8l6,10.9c0.1,0.2,0.3,0.3,0.4,0.4l10.9,6c0.8,0.4,0.8,1.6,0,2l-10.9,6c-0.2,0.1-0.3,0.3-0.4,0.4
		l-6,10.9c-0.4,0.8-1.6,0.8-2,0l-6-10.9c-0.1-0.2-0.3-0.3-0.4-0.4l-10.9-6c-0.8-0.4-0.8-1.6,0-2l10.9-6c0.2-0.1,0.3-0.3,0.4-0.4
		l6-10.9C326.9,432,328.1,432,328.5,432.8z"/>
	<path class="st12" d="M144.5,412.3l6,10.9c0.1,0.2,0.3,0.3,0.4,0.4l10.9,6c0.8,0.4,0.8,1.6,0,2l-10.9,6c-0.2,0.1-0.3,0.3-0.4,0.4
		l-6,10.9c-0.4,0.8-1.6,0.8-2,0l-6-10.9c-0.1-0.2-0.3-0.3-0.4-0.4l-10.9-6c-0.8-0.4-0.8-1.6,0-2l10.9-6c0.2-0.1,0.3-0.3,0.4-0.4
		l6-10.9C143,411.6,144.1,411.6,144.5,412.3z"/>
	<path class="st12" d="M195.6,299.9l6,10.9c0.1,0.2,0.3,0.3,0.4,0.4l10.9,6c0.8,0.4,0.8,1.6,0,2l-10.9,6c-0.2,0.1-0.3,0.3-0.4,0.4
		l-6,10.9c-0.4,0.8-1.6,0.8-2,0l-6-10.9c-0.1-0.2-0.3-0.3-0.4-0.4l-10.9-6c-0.8-0.4-0.8-1.6,0-2l10.9-6c0.2-0.1,0.3-0.3,0.4-0.4
		l6-10.9C194.1,299.2,195.2,299.2,195.6,299.9z"/>
</g>
</svg>
